HIERARCHY
ROOT Hips
{
	OFFSET 0.000000 0.000000 0.000000
	CHANNELS 6 Xposition Yposition Zposition Zrotation Yrotation Xrotation 
	JOINT LHipJoint
	{
		OFFSET 0.000000 0.000000 0.000000
		CHANNELS 3 Zrotation Yrotation Xrotation
		JOINT LeftUpLeg
		{
			OFFSET 1.363060 -1.794630 0.839290
			CHANNELS 3 Zrotation Yrotation Xrotation
			JOINT LeftLeg
			{
				OFFSET 2.448110 -6.726130 0.000000
				CHANNELS 3 Zrotation Yrotation Xrotation
				JOINT LeftFoot
				{
					OFFSET 2.562200 -7.039590 0.000000
					CHANNELS 3 Zrotation Yrotation Xrotation
					JOINT LeftToeBase
					{
						OFFSET 0.157640 -0.433110 2.322550
						CHANNELS 3 Zrotation Yrotation Xrotation
						End Site
						{
							OFFSET 0.000000 0.000000 0.000000
						}
					}
				}
			}
		}
	}
	JOINT RHipJoint
	{
		OFFSET 0.000000 0.000000 0.000000
		CHANNELS 3 Zrotation Yrotation Xrotation
		JOINT RightUpLeg
		{
			OFFSET -1.305520 -1.794630 0.839290
			CHANNELS 3 Zrotation Yrotation Xrotation
			JOINT RightLeg
			{
				OFFSET -2.542530 -6.985550 0.000000
				CHANNELS 3 Zrotation Yrotation Xrotation
				JOINT RightFoot
				{
					OFFSET -2.568260 -7.056230 0.000000
					CHANNELS 3 Zrotation Yrotation Xrotation
					JOINT RightToeBase
					{
						OFFSET -0.164730 -0.452590 2.363150
						CHANNELS 3 Zrotation Yrotation Xrotation
						End Site
						{
							OFFSET 0.000000 0.000000 0.000000
						}
					}
				}
			}
		}
	}
	JOINT LowerBack
	{
		OFFSET 0.000000 0.000000 0.000000
		CHANNELS 3 Zrotation Yrotation Xrotation
		JOINT Spine
		{
			OFFSET 0.028270 2.035590 -0.193380
			CHANNELS 3 Zrotation Yrotation Xrotation
			JOINT Spine1
			{
				OFFSET 0.056720 2.048850 -0.042750
				CHANNELS 3 Zrotation Yrotation Xrotation
				JOINT Neck
				{
					OFFSET 0.000000 0.000000 0.000000
					CHANNELS 3 Zrotation Yrotation Xrotation
					JOINT Neck1
					{
						OFFSET -0.054170 1.746240 0.172020
						CHANNELS 3 Zrotation Yrotation Xrotation
						JOINT Head
						{
							OFFSET 0.104070 1.761360 -0.123970
							CHANNELS 3 Zrotation Yrotation Xrotation
							End Site
							{
								OFFSET 0.000000 0.000000 0.000000
							}
						}
					}
				}
				JOINT LeftShoulder
				{
					OFFSET 0.000000 0.000000 0.000000
					CHANNELS 3 Zrotation Yrotation Xrotation
					JOINT LeftArm
					{
						OFFSET 3.362410 1.200890 -0.311210
						CHANNELS 3 Zrotation Yrotation Xrotation
						JOINT LeftForeArm
						{
							OFFSET 4.983000 -0.000000 -0.000000
							CHANNELS 3 Zrotation Yrotation Xrotation
							JOINT LeftHand
							{
								OFFSET 3.483560 -0.000000 -0.000000
								CHANNELS 3 Zrotation Yrotation Xrotation
								JOINT LeftFingerBase
								{
									OFFSET 0.000000 0.000000 0.000000
									CHANNELS 3 Zrotation Yrotation Xrotation
									JOINT LeftHandIndex1
									{
										OFFSET 0.715260 -0.000000 -0.000000
										CHANNELS 3 Zrotation Yrotation Xrotation
										End Site
										{
											OFFSET 0.000000 0.000000 0.000000
										}
									}
								}
								JOINT LThumb
								{
									OFFSET 0.000000 0.000000 0.000000
									CHANNELS 3 Zrotation Yrotation Xrotation
									End Site
									{
										OFFSET 0.000000 0.000000 0.000000
									}
								}
							}
						}
					}
				}
				JOINT RightShoulder
				{
					OFFSET 0.000000 0.000000 0.000000
					CHANNELS 3 Zrotation Yrotation Xrotation
					JOINT RightArm
					{
						OFFSET -3.136600 1.374050 -0.404650
						CHANNELS 3 Zrotation Yrotation Xrotation
						JOINT RightForeArm
						{
							OFFSET -5.241900 -0.000000 -0.000000
							CHANNELS 3 Zrotation Yrotation Xrotation
							JOINT RightHand
							{
								OFFSET -3.444170 -0.000000 -0.000000
								CHANNELS 3 Zrotation Yrotation Xrotation
								JOINT RightFingerBase
								{
									OFFSET 0.000000 0.000000 0.000000
									CHANNELS 3 Zrotation Yrotation Xrotation
									JOINT RightHandIndex1
									{
										OFFSET -0.622530 -0.000000 -0.000000
										CHANNELS 3 Zrotation Yrotation Xrotation
										End Site
										{
											OFFSET 0.000000 0.000000 0.000000
										}
									}
								}
								JOINT RThumb
								{
									OFFSET 0.000000 0.000000 0.000000
									CHANNELS 3 Zrotation Yrotation Xrotation
									End Site
									{
										OFFSET 0.000000 0.000000 0.000000
									}
								}
							}
						}
					}
				}
			}
		}
	}
}
MOTION
Frames: 7
Frame Time: 0.008333
10.219041 18.491327 -2.405367 1.195265 0.293397 6.051716 -2.559318 -0.142349 1.391933 -18.819539 -0.709887 -15.396458 -2.576044 7.258984 20.665182 -0.337848 4.861345 8.859787 0.004800 -0.445100 -1.223000 -0.541223 0.375196 -1.470713 16.584515 0.554455 -28.690806 -8.831412 -18.650272 59.124917 2.206589 -8.839532 1.247276 -0.669500 5.232400 -14.572500 -0.921715 -0.792735 -2.322909 1.119049 -1.412286 -5.276886 5.155359 -1.005710 6.046625 -9.381186 -2.989536 -18.391467 4.691268 -1.865858 9.155996 4.986600 -1.418800 11.819800 -1.139377 -7.714185 -0.567318 -79.806247 -10.611201 40.528327 9.406857 -17.342911 -2.452673 0.427793 1.581939 3.302121 13.042462 -22.892438 -5.363300 -7.125000 0.000000 0.000000 -10.230200 5.205100 9.414500 0.233537 7.981661 0.445775 75.908392 -10.487193 39.266699 -15.455682 22.771898 -4.913274 2.863397 2.506921 -17.188750 -29.556632 -22.506672 14.494300 7.125000 0.000000 0.000000 -4.328900 -57.274000 1.303100 
10.231495 18.475377 -2.215717 1.641241 0.623083 5.870264 -2.592303 -0.010890 1.575416 -19.338501 -0.802366 -14.270180 -2.668977 6.994066 20.133046 -0.271831 4.615589 8.571373 0.000000 -0.033300 -0.091400 -0.537929 0.414525 -1.586819 16.043970 0.675028 -29.161807 -8.306778 -18.464546 57.641036 1.969778 -8.085030 0.833858 -0.731000 5.462500 -15.232500 -1.386922 -1.077997 -2.197493 1.125812 -1.741297 -5.270386 5.230094 -1.216382 6.058705 -9.338123 -2.788191 -18.333515 4.697299 -1.607630 9.188153 4.989400 -1.300400 11.758600 -1.119193 -7.740293 -0.545644 -79.386357 -11.626191 41.131056 9.828668 -17.833367 -2.608598 0.478592 1.584023 3.457208 13.133098 -23.194409 -5.447000 -7.125000 0.000000 0.000000 -10.217400 4.886600 9.464900 0.217241 7.931968 0.454824 75.808717 -11.342000 39.619396 -15.523332 22.893503 -4.922480 2.914857 2.370101 -17.396485 -30.606370 -21.244470 14.240700 7.125000 0.000000 0.000000 -5.767100 -55.927700 1.549800 
10.242965 18.459864 -2.013831 2.637725 1.061187 5.631297 -2.572054 0.114425 1.727825 -20.532000 -0.784147 -13.004188 -2.746277 6.776323 19.749482 -0.107010 4.046516 8.007525 0.001600 0.257400 0.707300 -0.559751 0.439636 -1.714590 14.911339 0.491036 -29.496565 -7.754234 -18.209616 55.929814 1.758244 -7.439937 0.682749 -0.763500 5.579900 -15.570300 -2.517248 -1.511830 -2.224055 1.118732 -2.223846 -5.207211 5.455115 -1.545239 6.523534 -9.259986 -2.602501 -18.589763 4.755891 -1.364121 9.248073 4.991400 -1.165100 11.740000 -1.109848 -7.701147 -0.501683 -78.811508 -12.849811 41.952915 10.339696 -18.456363 -2.783728 0.469147 1.569186 2.748397 13.393506 -23.212600 -5.556600 -7.125000 0.000000 0.000000 -10.065600 4.853700 9.325900 0.223098 7.819568 0.470496 75.757677 -11.703920 39.788576 -15.438577 22.864649 -4.895726 2.963230 2.335959 -17.110010 -31.407958 -21.018682 14.507500 7.125000 0.000000 0.000000 -6.741300 -55.811500 1.794100 
10.238595 18.453309 -1.827786 3.038483 1.686898 5.573092 -2.576639 0.216597 1.865338 -20.952288 -0.835187 -12.044764 -2.809878 6.562381 19.332707 -0.026263 3.764193 7.691948 0.000300 -0.119200 -0.327500 -0.553779 0.495300 -1.845193 14.493399 0.454671 -30.033166 -7.146916 -17.929078 54.065081 1.811929 -7.644901 0.625553 -0.701700 5.354400 -14.922300 -3.066429 -1.865414 -2.225374 1.142968 -2.639236 -5.182366 5.681723 -1.815407 6.763684 -9.307069 -2.578242 -18.747806 4.841134 -1.306412 9.304807 5.050500 -1.129500 11.774600 -1.089493 -7.700612 -0.474002 -78.130593 -13.908470 43.773616 11.150528 -19.378243 -3.027113 0.406383 1.511517 0.632898 13.604120 -22.742401 -5.534800 -7.125000 0.000000 0.000000 -9.908300 5.370400 9.077300 0.216567 7.768616 0.462000 75.920568 -11.971812 38.908573 -15.244423 22.686996 -4.816265 2.917956 2.383615 -16.426846 -30.539739 -21.605584 14.450600 7.125000 0.000000 0.000000 -5.613400 -56.399100 1.572500 
10.225704 18.440418 -1.667851 2.453659 2.200654 5.794078 -2.656003 0.288656 2.002653 -20.095496 -1.154684 -11.547039 -2.892022 6.301260 18.734131 0.001530 3.743044 7.797775 0.000500 0.143000 0.392800 -0.479550 0.600930 -1.972022 15.133183 0.976077 -30.812604 -6.435275 -17.625942 52.028720 2.073669 -8.493577 0.242822 -0.618400 5.032500 -14.001400 -2.468458 -1.960793 -2.245926 1.189233 -2.789650 -5.228472 5.640790 -1.889630 6.552682 -9.400957 -2.671064 -18.664134 4.805415 -1.415082 9.374070 5.075600 -1.208000 11.859600 -1.050679 -7.769906 -0.463492 -77.340357 -14.778072 46.509307 11.999849 -20.250942 -3.285478 0.311805 1.503191 -1.683352 14.430372 -22.632064 -5.877100 -7.125000 0.000000 0.000000 -9.373800 5.389200 8.570100 0.166755 7.774084 0.430246 76.037726 -12.859435 38.390374 -15.390059 22.907056 -4.885060 2.818021 2.487475 -16.697087 -29.465168 -22.236722 14.293000 7.125000 0.000000 0.000000 -4.194200 -56.994700 1.234200 
10.221444 18.434191 -1.494587 2.310829 2.688286 5.943163 -2.700455 0.369853 2.132779 -19.793192 -1.439432 -10.882254 -2.967003 6.069927 18.244617 0.157882 3.338707 7.756634 0.013800 0.757700 2.082300 -0.419390 0.684720 -2.084984 15.126659 1.368981 -31.308463 -5.672188 -17.219200 49.771929 2.053701 -8.470861 0.172508 -0.751300 5.536200 -15.444500 -2.326672 -2.075908 -2.267781 1.210945 -2.933617 -5.253301 5.671527 -1.981215 6.440157 -9.591634 -2.792730 -18.550927 4.819146 -1.535160 9.425310 5.151200 -1.290200 11.898600 -1.032099 -7.807528 -0.447729 -76.785115 -15.846250 47.956319 12.641808 -20.898574 -3.510418 0.342932 1.488207 -2.689663 14.296285 -22.847130 -5.839000 -7.125000 0.000000 0.000000 -9.501300 5.216600 8.721500 0.092137 7.748664 0.429438 75.909666 -13.970899 39.119266 -15.775867 23.394408 -5.036435 2.793171 2.464529 -18.269093 -30.198824 -21.256320 14.067000 7.125000 0.000000 0.000000 -5.218300 -55.951900 1.404800 
10.222864 18.448830 -1.312475 2.611669 3.373884 5.961762 -2.706563 0.466414 2.265280 -20.049618 -1.488777 -10.029888 -3.027640 5.859629 17.841755 0.371901 2.730600 7.590324 0.013000 0.736900 2.025100 -0.367239 0.745083 -2.186183 14.514031 1.510009 -31.502511 -4.873384 -16.700017 47.291091 1.831539 -7.850738 0.463961 -0.991700 6.338100 -17.768500 -2.660829 -2.339425 -2.192536 1.221677 -3.238390 -5.246924 5.791915 -2.169594 6.421219 -9.785661 -2.891102 -18.303664 4.989054 -1.627343 9.276104 5.321400 -1.316400 11.703700 -1.045151 -7.820824 -0.402190 -76.324536 -16.984627 48.414221 13.233135 -21.512239 -3.743562 0.428365 1.457064 -2.984461 13.726565 -23.070611 -5.593100 -7.125000 0.000000 0.000000 -9.915800 5.112300 9.133600 0.030841 7.741363 0.456360 75.990643 -14.556379 38.787729 -15.667380 23.313354 -4.970990 2.828822 2.322324 -18.547333 -30.868205 -19.873051 13.500300 7.125000 0.000000 0.000000 -6.148500 -54.364800 1.419000 
